<?xml version="1.0" encoding="UTF-8"?><svg id="Layer_1" xmlns="http://www.w3.org/2000/svg" viewBox="0 0 142.65 144.74"><defs><style>.cls-1{fill:#231f20;}</style></defs><path class="cls-1" d="M141.01,75.96c.24-.43,2.29-4.3,.72-6.97-.44-.74-1.14-1.23-1.98-1.59-.3-.3-.65-.57-1.06-.79-.78-.43-1.66-.57-2.54-.62-.54-.03-1.04,.1-1.54,.26-5.12-.11-11.3,3.89-14.19,7.19-.06,.05-.12,.1-.18,.15-2.26,1.87-3.98,4.54-6.63,5.88-.06,.03-.1,.09-.15,.13-.45,.23-.9,.46-1.36,.69-.41,.21-.8,.48-1.2,.75-11.44,5.58-20.19,6.4-25.55,6.09-.05-.05-.07-.1-.14-.14-.99-.64-2.07-1.08-3.09-1.66-1.17-.67-1.76-1.8-2.07-3.08,0-.01-.01-.02-.01-.03-.26-2.75,.31-5.74,.76-8.22,.76-4.18,2.16-7.77,4.38-11.19,.16-.18,.31-.37,.45-.54,.38-.47,.93-1.28,1.37-1.45,.4-.15,.52-.55,.36-.91,.04-.18,.03-.36-.09-.52-.05-.07-.12-.11-.19-.15-.03-.04-.05-.09-.1-.12-2.86-2.09-5.04-4.93-6.33-8.19-.35-4.29-.54-8.52-.61-12.48,.43-1.37,.98-2.67,2.71-2.63,.16,0,.29-.04,.4-.11,4.26,.24,10.77,.95,15.26,3.04,.34,2.99,.7,6.05,1.07,8.95l.02,.17,.07,.16c3.17,7.39,6.59,11.14,10.16,11.14,3.27,0,5.19-3.14,5.27-3.28l.05-.08c.84-1.69,.95-3.14,.39-4.34-.05-.2-.06-.4-.14-.6-.8-2.03-3.02-2.55-4.95-2.06-.03,0-.07,0-.1-.01-1.08-1.91-1.88-3.8-2.47-5.67,0,0,0,0,0-.01,0,0,0,0,.01,0-.04-.2-.03-.31,0-.36,.03-.01,.07-.03,.1-.04,.15-.03,.31,0,.46,.04,.19,.04,.38-.01,.55-.1,5.11,2.1,12.58,5.34,14.44,6.9l.11-.13c4.3,3.87,10.1,4.16,11.06,4.18,.92,.14,1.77,.21,2.53,.21,2.5,0,4.2-.76,5.05-2.25,.61-1.06,.63-2.29,.43-3.43,0-.82-.18-1.69-.59-2.38,0-.03,.01-.05,0-.09-.3-1.86-2.61-2.55-4.22-2.71-.94-.09-1.96-.1-2.87,.21-.26,.09-1.9,1.42-1.78,1.47-.17-.06-.34-.07-.52-.05-2.02-.81-2.86-2.35-2.9-2.42l-.06-.12c-.95-1.48-1.56-2.83-1.9-4.07-.04-.13-.05-.27-.13-.39,0,0,0,0,0,0-.3-1.33-.24-2.5,.2-3.52,1.32-3.04,5.65-3.88,5.67-3.88,1.72-.27,2.48-1.13,2.8-1.8,.78-1.58-.15-3.36-.26-3.55l-.13-.25-.23-.16c-1.11-.8-3.01-1.18-5.81-1.18-2.17,0-4.08,.24-4.16,.25l-.33,.04-.27,.2c-5.1,3.93-6.49,8.23-6.7,11.37-4.15-.69-8.98-2.7-10.96-3.58,.03-.13,.05-.26,.09-.4,1.05-3.64,3.07-6.72,5.28-9.21,.24-.1,.45-.26,.57-.47,.15-.26,.36-.5,.56-.75,.77-.79,1.55-1.51,2.3-2.15,.59-.42,1.18-.82,1.74-1.13,1.32-.74,2.73-1.15,3.94-2.05,.81-.32,1.37-.92,1.5-1.61l.05-.03-.04-.04c.07-.49-.07-1.01-.54-1.51-.78-.83-2.06-1.48-3.15-1.81-.07-.02-.14-.01-.21-.01-1.05-.54-2.31-.55-3.54-.54-.41-.03-.79-.09-1.22-.09-2.79,0-5.4,.69-6.7,1.1C101.98,3.64,95.64,0,89.17,0c-7.35,0-12.6,4.7-14.52,6.74C68.86,2.52,63.36,.38,58.27,.38c-12.07,0-18.16,11.62-19.91,15.65-2.15-1.06-4.25-1.59-6.26-1.59-7.25,0-10.9,6.76-11.51,8.01-.92,1.06-.89,1.97-.69,2.55,.51,1.5,2.52,1.89,2.91,1.95l.47,.07,.4-.26c2.41-1.58,4.64-2.38,6.63-2.38,5.09,0,7.64,5.36,8.36,7.19-9.18,4.5-20.02,11.89-32.19,23.84-.03,.02-.06,.02-.08,.05-.08,.07-.13,.16-.2,.24-.03,.03-.06,.06-.09,.08-1.07,.94-2.15,1.86-3.22,2.81-.06,.06-.1,.13-.15,.21-.95,.6-2.26,1.69-2.71,3.27l-.05,.17v.17c0,.61,.4,2.28,4.02,4.55,1.9,2.05,24.91,26.02,58.26,30.07,.06,.05,.14,.08,.24,.1,1.17,.79,1.93,2.14,1.78,3.59,0,.01,0,.02,0,.03-1.48,7.38-5.04,11.27-10.41,11.27-1.82,0-3.43-.44-4.38-.77,.16-.22,.42-.5,.67-.77,.51-.29,.99-.63,1.38-1.08,.15-.17,.2-.35,.28-.52l.07-.06,.02-.12c.03-.1,.05-.2,.06-.3,0-.04,0-.06,.01-.1,.18-.35,.2-.71,.11-1.06,0-.14,0-.27-.02-.39,0-.27-.05-.52-.14-.77-.03-.1-.05-.2-.09-.29-.04-.07-.08-.13-.12-.2-.07-.12-.13-.25-.21-.35-.11-.14-.28-.28-.47-.42-.81-.69-1.95-1.1-3.06-1.12-.32-.03-.67-.04-1.06,.02-2.11,.29-4.47,1.71-5.69,3.55-.34,.45-.64,.93-.88,1.44,0,0,0,0,0,0,0,0,0,0,0,.01-.08,.18-.15,.36-.22,.54-.04,.12-.11,.24-.13,.37-.03,.08-.06,.16-.08,.24-.14,.19-.23,.45-.25,.67,0,.13,0,.26,0,.39-.03,1.32,.61,2.53,1.21,3.69,2.23,4.77,7.88,6.57,13.09,6.57,.27,0,.44,0,.45,0,12.01-.05,17.03-12.54,19.02-20.69,1.58,4.14,4.1,7.58,4.47,8.08,10.88,17.69,28.69,11.61,29,11.49l.22-.08,.18-.15c3.4-2.94,4.87-5.85,4.37-8.66-.81-4.59-6.63-6.85-6.88-6.94l-.26-.1-.28,.02c-.99,.08-4.02,.3-4.72,2.46-.75,2.32,2.01,4.77,2.57,5.24l.11,.08c.07,.05,.13,.09,.17,.13-.23,.27-.84,.66-1.43,.93-10.4,.63-15.28-7.56-17.24-12.32-.1-.68-.34-1.66,.18-1.97,.52-.31,1.14-.46,1.78-.54,.31,0,.61,.02,.95,.02,5.86,0,16.25-1.48,32.71-8.36,.96,2.39,2.79,5.01,6.14,7.43l.27,.2,.34,.03c.06,0,1.44,.14,3.18,.14h0c3.33,0,5.54-.45,6.75-1.38l.22-.17,.13-.25c.1-.2,.97-2,.15-3.56-.35-.66-1.13-1.5-2.83-1.71-.04,0-4.4-.73-5.8-3.7-.94-1.98-.42-4.65,1.52-7.92,.11-.03,.22-.08,.33-.15,1.39-.94,2.33-1.43,4.01-1.07,1.05,.23,1.93,.45,3,.36,.78-.06,1.45-.4,2.03-.84,.55-.2,1.12-.46,1.74-.81l.31-.17,.17-.31Zm-21.95,3.46c-.14,.73-.23,1.51-.28,2.33-.14,.51-.48,1.91-.37,3.81-.42,1.15-1.08,2.04-2.02,2.81-21.99,8.85-32.1,7.45-34.44,6.89-.71-2.2-1.29-4.33-1.67-6.32,1.52,.37,3.93,.79,7.19,.79,6.99,0,17.78-1.93,31.59-10.32Zm-22.53-61.5c.19,1.08,.41,2.15,.6,3.24-.06,1.49,.02,3.6,.2,6.14-7.56-2.25-12.99-2.32-16.01-2.05,0-.02,0-.04,0-.06-.73-3.3-.49-6.58,.01-9.87,2.76-3.24,5.31-4.91,7.6-4.91,3.83,0,6.39,4.67,7.59,7.51Zm-16.51,15.2c0-1.84,.04-3.59,.08-5.22,2.14-.35,8.19-.84,17.44,2.06,.16,1.88,.36,3.89,.58,5.97-6.35-2.45-15-2.78-18.1-2.81Zm52.21,13.95c.11,.16,.32,.26,.65,.27,.33,0,.67,.04,1,.09,.04,0,.08,.01,.13,.02,.27,.05,.53,.11,.8,.19,.12,.12,.28,.16,.47,.15,.6,.2,1.19,.46,1.72,.77,.49,.28,1.1,.74,1.2,1.33,0,.06-.03,.11-.03,.16-.62,.2-1.34,.26-2.1,.23-2.64-.55-5.23-1.58-7.49-2.86-3.9-2.2-5.39-5.37-6.8-9.25,0-.05,0-.1-.02-.15-.08-1.37-.07-2.77-.11-4.07,.05-.45,.12-.89,.22-1.33,.02-.07,.03-.14,.05-.21,.04-.15,.09-.29,.13-.44,.46-1.02,.99-1.94,1.4-2.58,.84-.95,2-1.85,3.27-2.55,.52-.21,1.04-.39,1.56-.52,.65-.17,1.61-.44,2.55-.57,1.44,.07,2.3,.25,2.79,.43-2.92,.28-6.38,2.05-7.69,4.68-.06,.11-.08,.22-.1,.33-.29,.34-.55,.7-.75,1.12-.25,.54-.39,1.09-.48,1.69-.05,.33-.02,.66,0,1-.08,.27-.07,.52,.02,.72-.03,.33-.05,.66-.05,.99,0,.26,.09,.55,.27,.74,.11,.84,.41,1.63,.83,2.38,.43,1.13,1.02,2.31,1.8,3.54,.25,.45,1.66,2.74,4.74,3.73Zm-13.81-9.46c.11,.88,.29,1.53,.38,1.84,.19,2.13,.7,3.91,1.4,5.45-4.75-2.33-11.22-4.92-13.29-5.74-.23-1.74-.22-3.46,0-5.15,2.41,1.05,7.27,2.98,11.51,3.6ZM51.24,14.7c.73-.92,1.56-1.57,2.38-2.06,.9-.27,1.76-.65,2.6-1.08,.37-.09,.69-.16,.94-.19,.23,.12,.53,.16,.88,.02,4.17-1.62,7.57,.67,9.66,4.22,1.67,2.83,1.82,6.08,1.83,9.28-1.45-.02-3.11-.28-4.53,.08-3.78-.13-9.08,.31-15.7,2.34-.92-5.58-.28-9.83,1.92-12.62Zm11.84,80h0s-.02,0-.03,0c.01,0,.02,0,.03,0Zm3.71-12.41c-.21,.75-.49,1.26-1.2,1.62-.61,.31-1.33,.47-2,.59-.08,.01-.14,.06-.2,.09-11.21-1.82-22.29-5.84-30.91-11.29-.59-.38-1.13-.75-1.68-1.12l.02-.02c-6.49-8.79-1.58-20.61-.81-22.32,.9-.79,1.82-1.57,2.75-2.3,3.39-2.66,6.87-4.77,10.27-6.43,.73,2.08,1.92,6.34,.9,9.79-.24,.37-.66,.85-.97,.92-.04,.01-.1,.02-.26-.09-.29-.18-2.85-1.73-4.91-.54-1.4,.81-2.05,2.56-1.95,5.22l.03,.23c.04,.16,.94,3.9,4.07,4.99,.55,.19,1.13,.29,1.73,.29,1.83,0,3.87-.89,6.11-2.66l.14-.13c.29-.31,6.9-7.68,4.35-21.61,7.27-2.17,13.41-2.56,16.57-2.58,.59,.44,.99,1.36,.97,1.95,0,.15,.04,.27,.11,.38-.15,3.29-.44,6.18-.85,8.64-.64,2.13-1.55,4.26-2.21,5.95-.89,2.26-2.03,4.46-3.44,6.44-.96,1.35-2.35,1.76-3.5,2.8-.61,.55-.05,1.25,.59,1.44l.78,.78c4.53,4.53,5.63,12.09,5.52,18.98ZM18.92,57.64s0,0-.01,0c.03-.03,.05-.06,.08-.09-.02,.03-.05,.07-.07,.1Zm.68,5.15c-.39-.63-.54-1.03-.6-1.26l.22-.02,.33-.49c1.72-2.56,3.48-4.59,5.29-6.41-1.27,3.78-1.94,8.09-1.02,11.76-.54-.34-1.1-.67-1.66-.99-1.47-1.38-2.35-2.35-2.56-2.59Zm30.27-24.51c2.08,11.94-3.09,18.36-3.73,19.1-.8,.63-1.77,1.27-2.75,1.67-.18-.08-.39-.12-.62-.08-2.88,.5-3.07-2.96-1.88-4.8h.93c.09,0,.18-.03,.27-.05,.47,.15,.95,.22,1.44,.1,1.52-.37,2.44-1.91,2.61-2.22l.1-.23c1.35-4.28-.11-9.38-.95-11.69,1.55-.68,3.08-1.29,4.57-1.8Zm-1.24-7.99l1.21-.25-.03-.12c10.81-3.36,17.91-2.32,20.21-1.81-.01,.54-.04,.88-.04,.89v.06s0,.06,0,.06c.03,1.18,.02,2.25,.02,3.35-4.9-.14-22.17,.35-38.34,12.81-.14,.05-.27,.1-.38,.18-.64,.42-1.31,.84-1.88,1.39-.16,.04-.31,.1-.43,.22-.77,.75-1.62,1.41-2.47,2.07-.03,0-.06,.01-.08,.02-.28,.11-.51,.33-.64,.51-.03,.03-.04,.07-.06,.11-.24,.19-.47,.37-.7,.57-.7,.46-1.31,1.02-1.98,1.52-.16,.12-.29,.31-.37,.51-1.01,.71-1.95,1.53-2.79,2.24-.76,.64-1.66,1.41-2.48,2.27-1.01,.83-2.02,1.67-2.9,2.64-.14,.16-.23,.4-.25,.66-.15,.25-.08,.55,.11,.78,.09,.2,.23,.33,.41,.37,0,.02,0,.05,.02,.07,.94,1.61,2.19,2.74,3.57,3.7,1.53,1.65,5.76,5.85,12.81,10.31,5.79,3.66,18.02,10.04,35.34,12.15-.21,2.12-.49,4.05-.76,5.64-.11-.08-.25-.14-.47-.14-12.55-.17-24.55-4.89-35.54-10.66-4.9-2.57-9.68-5.51-14.2-8.7-3.07-2.17-7.74-6.16-9.62-10.34,.03-1.64,.18-3.32,.98-4.74,.07-.05,.13-.12,.2-.17,.22-.15,.34-.32,.4-.49,.1-.1,.2-.2,.3-.3,.07-.04,.14-.08,.2-.14,.05-.06,.08-.12,.12-.18,16.19-15.91,30-23.52,40.5-27.01,0,0,.02,0,.02,0Zm52.75,85.18h.19s.18-.08,.18-.08c.71-.28,3.03-1.34,3.21-3.11,.04-.4-.05-.9-.39-1.43-.09-.37-.23-.73-.45-1.12-.05-.09-.25-.38-.48-.73,0-.05,.02-.11,.02-.16-.01,.14,0,.15,.01,.03-.04,.2,.04-.09,.05-.12,.03-.07,.1-.17,.16-.25,.5-.35,1.31-.44,2.07-.37,.8,.38,1.54,.95,2.06,1.44,1.1,1.04,.95,2.41,.51,3.73-.24,.71-.6,1.38-1,2.02-.1,.04-.2,.1-.28,.17-1.05,1.01-2.54,1.78-3.58,2.87-1.14,.2-2.61,.38-4.29,.38-5.63,0-13.55-1.99-19.36-11.47l-.07-.1c-.05-.06-3.89-5.18-5-10.22-.09-1.2-.18-2.4-.28-3.6-.01-.13-.05-.25-.12-.34-.02-.09-.05-.18-.09-.24-.02-.51-.69-.7-1.1-.67-.31,.03-.59,.17-.77,.39-.17,.14-.3,.32-.34,.53-.14,.88-.4,1.69-.42,2.59,0,.06,.04,.1,.06,.16-1.04,6.21-5.01,22.94-17.51,22.98-.02,0-.15,0-.37,0-2.51,0-10.67-.55-11.52-7.58,0-.01,0-.03,0-.04,.35-.72,1.47-2.68,3.6-3.51,.06,.38,.06,.79,.07,1.12,0,.1,.01,.19,.02,.29-.5,.22-.87,.92-.66,1.46,.39,.99,.7,1.49,1.49,2.11h0s.02,.02,.04,.03c.06,.1,.1,.21,.19,.29l.15,.15,.19,.09c.11,.06,2.88,1.37,6.34,1.37,4.27,0,11.66-2.12,13.33-16.31,.48-1.85,6.03-24.37-3.16-35.5,2.94-2.27,9.01-9.86,8.39-33.6,.01-.23,.06-1.04,.05-2.23-.02-5.63-1.13-18.72-10.94-18.72-.21,0-.45,.05-.67,.06-.15,0-.31,0-.46,0-.08,0-.16,0-.25,0-.55,.01-1.1,.06-1.64,.16-1.65,.04-3.31,.5-4.68,1.37-1.49,.62-3.15,1.64-4.55,3.39-2.74,3.43-3.54,8.47-2.41,14.98-.11,.04-.22,.08-.33,.12-1.18,.3-2.86,.77-4.52,1.39,0-.09,0-.18-.03-.26-1.01-3.61-4.01-5.62-7.38-6.88-1.62-.61-3.36-.79-5.07-.66-.43,.03-2.08,.34-3.51,.44,.23-.72,.53-1.35,.91-1.89,.57-.58,1.24-1.08,1.81-1.47,.25-.17,.52-.29,.78-.43,.99-.05,2.04-.08,3.08-.04,.11,.03,.24,.04,.38,0,2.22,.12,4.27,.66,5.37,2.15,.07,.29,.2,.55,.48,.7,.12,.06,.23,.08,.34,.07,.59,.06,1.21-.96,.84-1.63-.01-.02-.03-.03-.05-.06,.08-.61,.18-1.22,.29-1.83,.9-2.25,6.48-14.97,17.96-14.97,4.8,0,10.12,2.2,15.8,6.54l.97,.74,.76-.96c.05-.07,5.4-6.7,13.38-6.7,5.13,0,10.26,2.71,15.27,8.05,.67,1.09,1.07,2.33,1.73,3.43,.22,.36,.68,.39,1.09,.23,.08,0,.16,0,.27-.04,3.1-1.01,6.34-1.14,9.55-.77,.12,.07,.24,.13,.35,.2,.04,.27-.04,.6-.14,.81-.02,.05-.01,.09-.03,.13-3.91,2.78-9.91,8.11-12.16,15.89-1.47,5.08-1.05,10.38,1.18,15.8,.46,1.68,1.02,3.42,2.22,4.48l.35,.59,.51-.02c.4,.2,.83,.35,1.35,.41,3.01,.35,1.49,3.87-.97,4.02-1.58,.1-3.01-1.21-3.99-2.26-1.08-1.15-1.9-2.53-2.73-3.9-.35-.71-.71-1.48-1.08-2.33-1.5-11.92-2.76-25.09-2.32-26.91l.26-.39-.16-.55c-.12-.41-2.7-8.97-8.33-11-.07-.08-.17-.14-.3-.16-.17-.03-.33-.04-.5-.06-.35-.08-.7-.13-1.07-.16-4.74-.79-10.58,2.02-11.57,6.9,0,.02,0,.03,0,.04-.09,.11-.15,.23-.15,.41-.02,1.63-.09,3.27-.11,4.9-.01,.9,.06,1.79,.12,2.68-.3,6.49-.49,16.47,.3,26.95,0,.05,0,.1,.01,.14,.05,.69,.1,1.37,.16,2.06l.02,.2,.08,.18c.03,.07,.23,.51,.53,1.15,.07,.2,.11,.39,.19,.59,.35,.78,.79,1.52,1.27,2.23,.84,1.51,1.87,3.16,2.97,4.41-2.7,3.39-10.8,15.96-3.09,37.24,.35,1.34,5.09,18.53,21.12,17.41Zm30.4-20.43s-.08-.04-.13-.05c-1.79-.29-3.4-.53-4.98-1.16-.03-.01-.06-.02-.08-.04-.15-.06-.3-.15-.45-.22-2.99-1.64-4.68-4.53-5.14-8.37-.05-.45-.08-.91-.1-1.37,.09-.84,.26-1.37,.29-1.44l.06-.17v-.18c.21-3.86,1.59-6.51,3.36-8.34,1.48-.91,3.72-2.3,6.08-3.37,.48-.1,.93-.26,1.39-.43,.04-.01,.08-.02,.12-.03,.71-.13,1.26-.19,1.62-.22,.3,.03,.6,.07,.89,.14,0,0,.01,0,.02,0,.27,.14,.52,.3,.68,.62,.3,.59-.05,1.11-.46,1.52-.63,.63-1.4,1.09-2.17,1.54-3.63,.92-5.17,3.64-5.42,4.14-1.33,2.23-2.08,4.28-2.29,6.14-.4,2.24-.13,4.65,1.33,6.26,.04,.15,.13,.3,.32,.41,.13,.08,.27,.15,.41,.22,.09,.07,.16,.16,.26,.22,.11,.07,.23,.1,.35,.11,.73,.4,1.47,.78,2.21,1.14,.34,.2,.73,.39,1.16,.57,1.07,.51,2.14,1.03,3.19,1.59,.02,0,.04,0,.06,.02-.01,.06-.02,.12-.04,.17-.36,.18-1.11,.45-2.53,.6Z"/><path class="cls-1" d="M75.05,51.91v5.17c0,1.29,1.73,.4,1.73-.59v-5.17c0-1.28-1.73-.4-1.73,.59Z"/><path class="cls-1" d="M75.35,63.21c-.5,.04-.85,.62-.85,1.09v2.27c0,.43,.2,.99,.73,.95,.5-.04,.85-.62,.85-1.09v-2.27c0-.43-.2-.99-.73-.94Z"/><path class="cls-1" d="M74.5,69.68v5.79c0,1.35,1.58,1.03,1.58-.16v-5.79c0-1.35-1.58-1.03-1.58,.16Z"/><path class="cls-1" d="M78.75,61.33c.5,.03,.83-.55,.83-.99v-1.24c0-.44-.18-1.04-.71-1.08-.5-.03-.83,.55-.83,.99v1.24c0,.44,.18,1.05,.71,1.08Z"/><path class="cls-1" d="M70.76,56.02v15.09c0,1.11,2.03,.86,2.03-.13v-15.09c0-1.11-2.03-.86-2.03,.13Z"/><path class="cls-1" d="M67.94,59.28c-.48-.11-.86,.39-.86,.83v1.45c0,.47,.15,1.07,.68,1.2,.48,.11,.86-.39,.86-.83v-1.45c0-.47-.15-1.07-.69-1.2Z"/><path class="cls-1" d="M98.55,10.58c.36,.36,.84,.27,1.19-.08,.29-.29,.61-1,.25-1.36-.62-.62-1.24-1.24-1.86-1.86-.36-.36-.84-.27-1.19,.08-.29,.29-.61,1-.25,1.36,.62,.62,1.24,1.24,1.86,1.86Z"/><path class="cls-1" d="M104.81,18.67c-.89-1.29-1.39-2.64-1.25-4.22,.11-1.29-1.44-1.35-1.55-.07-.18,2.08,.46,4,1.64,5.7,.74,1.06,1.73-.59,1.16-1.41Z"/><path class="cls-1" d="M59.37,144.54h2.3v-14.33h-1.92l-4.22,3.31,1.16,1.46c1.25-1.01,1.98-1.61,2.2-1.8,.22-.19,.4-.36,.55-.52-.05,.65-.08,1.52-.08,2.63v9.26Z"/><path class="cls-1" d="M67.02,138.75c-.45,.64-.67,1.36-.67,2.15,0,1.22,.43,2.17,1.28,2.83,.86,.67,2.06,1,3.62,1s2.66-.36,3.53-1.07c.87-.71,1.3-1.66,1.3-2.84,0-.76-.24-1.46-.71-2.08-.48-.62-1.27-1.21-2.4-1.77,1.76-.87,2.65-2.04,2.65-3.51,0-1.05-.4-1.88-1.19-2.5-.79-.62-1.87-.94-3.23-.94s-2.38,.31-3.2,.93c-.82,.62-1.23,1.45-1.23,2.49,0,.73,.19,1.38,.56,1.96,.37,.58,1,1.13,1.87,1.66-1.02,.5-1.75,1.06-2.2,1.7Zm1.99-5.15c0-.56,.2-.99,.6-1.32,.4-.32,.92-.48,1.58-.48s1.2,.16,1.6,.48c.4,.32,.6,.76,.6,1.32,0,.51-.16,.96-.49,1.34-.32,.38-.88,.75-1.66,1.09-.65-.31-1.12-.57-1.39-.79-.27-.22-.48-.46-.63-.73-.14-.27-.22-.57-.22-.91Zm.11,5.66c.38-.45,1-.87,1.86-1.25l.28,.13c.88,.37,1.53,.78,1.96,1.22,.43,.44,.65,.92,.65,1.45,0,.67-.23,1.19-.7,1.58-.47,.39-1.12,.58-1.97,.58s-1.46-.19-1.94-.56c-.48-.38-.72-.9-.72-1.58,0-.59,.19-1.11,.57-1.56Z"/><path class="cls-1" d="M78.48,138.75c-.45,.64-.67,1.36-.67,2.15,0,1.22,.43,2.17,1.28,2.83,.86,.67,2.06,1,3.62,1s2.66-.36,3.53-1.07c.87-.71,1.3-1.66,1.3-2.84,0-.76-.24-1.46-.71-2.08-.47-.62-1.27-1.21-2.4-1.77,1.76-.87,2.65-2.04,2.65-3.51,0-1.05-.4-1.88-1.19-2.5-.79-.62-1.87-.94-3.23-.94s-2.38,.31-3.2,.93c-.82,.62-1.23,1.45-1.23,2.49,0,.73,.19,1.38,.56,1.96,.37,.58,1,1.13,1.87,1.66-1.02,.5-1.75,1.06-2.2,1.7Zm1.99-5.15c0-.56,.2-.99,.6-1.32,.4-.32,.92-.48,1.58-.48s1.2,.16,1.6,.48c.4,.32,.6,.76,.6,1.32,0,.51-.16,.96-.49,1.34-.32,.38-.88,.75-1.66,1.09-.65-.31-1.12-.57-1.39-.79-.27-.22-.48-.46-.63-.73-.14-.27-.22-.57-.22-.91Zm.11,5.66c.38-.45,1-.87,1.86-1.25l.28,.13c.88,.37,1.53,.78,1.96,1.22,.43,.44,.65,.92,.65,1.45,0,.67-.23,1.19-.7,1.58-.47,.39-1.12,.58-1.97,.58s-1.46-.19-1.94-.56c-.48-.38-.72-.9-.72-1.58,0-.59,.19-1.11,.57-1.56Z"/><path class="cls-1" d="M93.29,142.81c-.59,0-1.23-.08-1.91-.25-.69-.16-1.29-.39-1.82-.7v2.09c.91,.52,2.17,.77,3.77,.77,1.76,0,3.13-.43,4.08-1.29,.96-.86,1.44-2.05,1.44-3.58,0-1.32-.42-2.36-1.26-3.13-.84-.76-1.99-1.15-3.43-1.15-.48,0-.88,.03-1.21,.08-.33,.05-.61,.1-.84,.14l.32-3.55h5.42v-2.05h-7.45l-.55,7,1.03,.61c.34-.08,.74-.15,1.19-.21,.45-.06,.83-.09,1.14-.09,2.18,0,3.27,.86,3.27,2.57,0,.9-.27,1.58-.81,2.04-.54,.46-1.33,.7-2.37,.7Z"/><path class="cls-1" d="M125.33,7.63h.57l.85,1.42h.66l-1-1.57c.46-.19,.69-.5,.69-.94,0-.35-.11-.6-.33-.78-.22-.17-.56-.26-1.02-.26h-1v3.55h.58v-1.42Zm0-1.64h.38c.26,0,.46,.04,.59,.13,.13,.09,.2,.23,.2,.43s-.06,.35-.18,.45c-.12,.1-.32,.15-.59,.15h-.4v-1.16Z"/><path class="cls-1" d="M125.78,10.7c1.81,0,3.28-1.47,3.28-3.28s-1.47-3.28-3.28-3.28-3.28,1.47-3.28,3.28,1.47,3.28,3.28,3.28Zm0-6.08c1.54,0,2.8,1.26,2.8,2.8s-1.26,2.8-2.8,2.8-2.8-1.26-2.8-2.8,1.26-2.8,2.8-2.8Z"/></svg>